<mxfile host="app.diagrams.net" modified="2021-02-06T12:36:35.723Z" agent="5.0 (Windows NT 10.0; Win64; x64) AppleWebKit/537.36 (KHTML, like Gecko) Chrome/88.0.4324.150 Safari/537.36" etag="pna0FlcQgEPPclgmeTRC" version="13.8.9-1" type="github">
  <diagram id="q87qz0QwqE8sBQXYNTOX" name="Page-1">
    <mxGraphModel dx="1038" dy="548" grid="1" gridSize="10" guides="1" tooltips="1" connect="1" arrows="1" fold="1" page="1" pageScale="1" pageWidth="827" pageHeight="1169" math="0" shadow="0">
      <root>
        <mxCell id="0" />
        <mxCell id="1" parent="0" />
        <mxCell id="-Fz0O9VPjYnXU61P3-lc-1" value="Application A" style="rounded=0;whiteSpace=wrap;html=1;fillColor=#A9C4EB;" parent="1" vertex="1">
          <mxGeometry x="240" y="50" width="120" height="20" as="geometry" />
        </mxCell>
        <mxCell id="-Fz0O9VPjYnXU61P3-lc-2" value="User" style="shape=umlActor;verticalLabelPosition=bottom;verticalAlign=top;html=1;outlineConnect=0;" parent="1" vertex="1">
          <mxGeometry x="50" y="170" width="30" height="60" as="geometry" />
        </mxCell>
        <mxCell id="-Fz0O9VPjYnXU61P3-lc-5" value="" style="endArrow=classic;html=1;exitX=0.5;exitY=0.5;exitDx=0;exitDy=0;exitPerimeter=0;" parent="1" source="-Fz0O9VPjYnXU61P3-lc-2" edge="1">
          <mxGeometry width="50" height="50" relative="1" as="geometry">
            <mxPoint x="390" y="300" as="sourcePoint" />
            <mxPoint x="120" y="200" as="targetPoint" />
          </mxGeometry>
        </mxCell>
        <mxCell id="-Fz0O9VPjYnXU61P3-lc-10" style="edgeStyle=orthogonalEdgeStyle;rounded=0;orthogonalLoop=1;jettySize=auto;html=1;exitX=0.5;exitY=1;exitDx=0;exitDy=0;" parent="1" edge="1">
          <mxGeometry relative="1" as="geometry">
            <mxPoint x="745" y="200" as="sourcePoint" />
            <mxPoint x="745" y="200" as="targetPoint" />
          </mxGeometry>
        </mxCell>
        <mxCell id="-Fz0O9VPjYnXU61P3-lc-11" value="Portail" style="rounded=0;whiteSpace=wrap;html=1;" parent="1" vertex="1">
          <mxGeometry x="134" y="50" width="66" height="320" as="geometry" />
        </mxCell>
        <mxCell id="-Fz0O9VPjYnXU61P3-lc-12" value="Front&amp;nbsp;" style="rounded=0;whiteSpace=wrap;html=1;" parent="1" vertex="1">
          <mxGeometry x="240" y="70" width="120" height="20" as="geometry" />
        </mxCell>
        <mxCell id="-Fz0O9VPjYnXU61P3-lc-13" value="Back" style="rounded=0;whiteSpace=wrap;html=1;" parent="1" vertex="1">
          <mxGeometry x="240" y="90" width="120" height="20" as="geometry" />
        </mxCell>
        <mxCell id="-Fz0O9VPjYnXU61P3-lc-14" value="Application B" style="rounded=0;whiteSpace=wrap;html=1;fillColor=#A9C4EB;" parent="1" vertex="1">
          <mxGeometry x="240" y="140" width="120" height="20" as="geometry" />
        </mxCell>
        <mxCell id="-Fz0O9VPjYnXU61P3-lc-15" value="Front&amp;nbsp;" style="rounded=0;whiteSpace=wrap;html=1;" parent="1" vertex="1">
          <mxGeometry x="240" y="160" width="120" height="20" as="geometry" />
        </mxCell>
        <mxCell id="-Fz0O9VPjYnXU61P3-lc-16" value="Back" style="rounded=0;whiteSpace=wrap;html=1;" parent="1" vertex="1">
          <mxGeometry x="240" y="180" width="120" height="20" as="geometry" />
        </mxCell>
        <mxCell id="-Fz0O9VPjYnXU61P3-lc-19" value="Back" style="rounded=0;whiteSpace=wrap;html=1;" parent="1" vertex="1">
          <mxGeometry x="240" y="310" width="120" height="20" as="geometry" />
        </mxCell>
        <mxCell id="-Fz0O9VPjYnXU61P3-lc-20" value="Application D" style="rounded=0;whiteSpace=wrap;html=1;fillColor=#A9C4EB;" parent="1" vertex="1">
          <mxGeometry x="240" y="390" width="120" height="20" as="geometry" />
        </mxCell>
        <mxCell id="-Fz0O9VPjYnXU61P3-lc-21" value="Front&amp;nbsp;" style="rounded=0;whiteSpace=wrap;html=1;" parent="1" vertex="1">
          <mxGeometry x="240" y="410" width="120" height="20" as="geometry" />
        </mxCell>
        <mxCell id="-Fz0O9VPjYnXU61P3-lc-22" value="Back" style="rounded=0;whiteSpace=wrap;html=1;" parent="1" vertex="1">
          <mxGeometry x="240" y="430" width="120" height="20" as="geometry" />
        </mxCell>
        <mxCell id="-Fz0O9VPjYnXU61P3-lc-23" value="MicroService&amp;nbsp;" style="rounded=0;whiteSpace=wrap;html=1;fillColor=#FFB570;" parent="1" vertex="1">
          <mxGeometry x="500" y="10" width="120" height="20" as="geometry" />
        </mxCell>
        <mxCell id="-Fz0O9VPjYnXU61P3-lc-24" value="Back" style="rounded=0;whiteSpace=wrap;html=1;" parent="1" vertex="1">
          <mxGeometry x="500" y="30" width="120" height="20" as="geometry" />
        </mxCell>
        <mxCell id="-Fz0O9VPjYnXU61P3-lc-25" value="DataBase" style="rounded=0;whiteSpace=wrap;html=1;" parent="1" vertex="1">
          <mxGeometry x="500" y="50" width="120" height="20" as="geometry" />
        </mxCell>
        <mxCell id="-Fz0O9VPjYnXU61P3-lc-26" value="MicroService&amp;nbsp;" style="rounded=0;whiteSpace=wrap;html=1;fillColor=#FFB570;" parent="1" vertex="1">
          <mxGeometry x="500" y="110" width="120" height="20" as="geometry" />
        </mxCell>
        <mxCell id="-Fz0O9VPjYnXU61P3-lc-27" value="Back" style="rounded=0;whiteSpace=wrap;html=1;" parent="1" vertex="1">
          <mxGeometry x="500" y="130" width="120" height="20" as="geometry" />
        </mxCell>
        <mxCell id="-Fz0O9VPjYnXU61P3-lc-28" value="DataBase" style="rounded=0;whiteSpace=wrap;html=1;" parent="1" vertex="1">
          <mxGeometry x="500" y="150" width="120" height="20" as="geometry" />
        </mxCell>
        <mxCell id="-Fz0O9VPjYnXU61P3-lc-29" value="MicroService&amp;nbsp;" style="rounded=0;whiteSpace=wrap;html=1;fillColor=#FFB570;" parent="1" vertex="1">
          <mxGeometry x="500" y="270" width="120" height="20" as="geometry" />
        </mxCell>
        <mxCell id="-Fz0O9VPjYnXU61P3-lc-30" value="Back" style="rounded=0;whiteSpace=wrap;html=1;" parent="1" vertex="1">
          <mxGeometry x="500" y="290" width="120" height="20" as="geometry" />
        </mxCell>
        <mxCell id="-Fz0O9VPjYnXU61P3-lc-31" value="DataBase" style="rounded=0;whiteSpace=wrap;html=1;" parent="1" vertex="1">
          <mxGeometry x="500" y="310" width="120" height="20" as="geometry" />
        </mxCell>
        <mxCell id="-Fz0O9VPjYnXU61P3-lc-32" value="MicroService&amp;nbsp;" style="rounded=0;whiteSpace=wrap;html=1;fillColor=#FFB570;" parent="1" vertex="1">
          <mxGeometry x="500" y="360" width="120" height="20" as="geometry" />
        </mxCell>
        <mxCell id="-Fz0O9VPjYnXU61P3-lc-33" value="Back" style="rounded=0;whiteSpace=wrap;html=1;" parent="1" vertex="1">
          <mxGeometry x="500" y="380" width="120" height="20" as="geometry" />
        </mxCell>
        <mxCell id="-Fz0O9VPjYnXU61P3-lc-34" value="DataBase" style="rounded=0;whiteSpace=wrap;html=1;" parent="1" vertex="1">
          <mxGeometry x="500" y="400" width="120" height="20" as="geometry" />
        </mxCell>
        <mxCell id="-Fz0O9VPjYnXU61P3-lc-35" value="MicroService&amp;nbsp;" style="rounded=0;whiteSpace=wrap;html=1;fillColor=#FFB570;" parent="1" vertex="1">
          <mxGeometry x="670" y="210" width="120" height="20" as="geometry" />
        </mxCell>
        <mxCell id="-Fz0O9VPjYnXU61P3-lc-36" value="Back" style="rounded=0;whiteSpace=wrap;html=1;" parent="1" vertex="1">
          <mxGeometry x="670" y="230" width="120" height="20" as="geometry" />
        </mxCell>
        <mxCell id="-Fz0O9VPjYnXU61P3-lc-37" value="DataBase" style="rounded=0;whiteSpace=wrap;html=1;" parent="1" vertex="1">
          <mxGeometry x="670" y="250" width="120" height="20" as="geometry" />
        </mxCell>
        <mxCell id="-Fz0O9VPjYnXU61P3-lc-38" value="" style="endArrow=none;html=1;exitX=0;exitY=0.5;exitDx=0;exitDy=0;" parent="1" source="-Fz0O9VPjYnXU61P3-lc-20" edge="1">
          <mxGeometry width="50" height="50" relative="1" as="geometry">
            <mxPoint x="240" y="320" as="sourcePoint" />
            <mxPoint x="200" y="326" as="targetPoint" />
          </mxGeometry>
        </mxCell>
        <mxCell id="-Fz0O9VPjYnXU61P3-lc-39" value="" style="endArrow=none;html=1;exitX=1.018;exitY=0.651;exitDx=0;exitDy=0;exitPerimeter=0;entryX=0;entryY=1;entryDx=0;entryDy=0;" parent="1" source="-Fz0O9VPjYnXU61P3-lc-11" edge="1" target="-Fz0O9VPjYnXU61P3-lc-42">
          <mxGeometry width="50" height="50" relative="1" as="geometry">
            <mxPoint x="490" y="290" as="sourcePoint" />
            <mxPoint x="240" y="250" as="targetPoint" />
          </mxGeometry>
        </mxCell>
        <mxCell id="-Fz0O9VPjYnXU61P3-lc-40" value="" style="endArrow=none;html=1;exitX=1;exitY=0.331;exitDx=0;exitDy=0;exitPerimeter=0;entryX=0;entryY=0;entryDx=0;entryDy=0;" parent="1" source="-Fz0O9VPjYnXU61P3-lc-11" target="-Fz0O9VPjYnXU61P3-lc-12" edge="1">
          <mxGeometry width="50" height="50" relative="1" as="geometry">
            <mxPoint x="190" y="150" as="sourcePoint" />
            <mxPoint x="240" y="100" as="targetPoint" />
          </mxGeometry>
        </mxCell>
        <mxCell id="-Fz0O9VPjYnXU61P3-lc-41" value="" style="endArrow=none;html=1;" parent="1" edge="1">
          <mxGeometry width="50" height="50" relative="1" as="geometry">
            <mxPoint x="200" y="220" as="sourcePoint" />
            <mxPoint x="240" y="154" as="targetPoint" />
            <Array as="points" />
          </mxGeometry>
        </mxCell>
        <mxCell id="-Fz0O9VPjYnXU61P3-lc-42" value="Application C" style="rounded=0;whiteSpace=wrap;html=1;fillColor=#A9C4EB;" parent="1" vertex="1">
          <mxGeometry x="240" y="270" width="120" height="20" as="geometry" />
        </mxCell>
        <mxCell id="-Fz0O9VPjYnXU61P3-lc-43" value="Front&amp;nbsp;" style="rounded=0;whiteSpace=wrap;html=1;" parent="1" vertex="1">
          <mxGeometry x="240" y="290" width="120" height="20" as="geometry" />
        </mxCell>
        <mxCell id="6cMaasl4A06SphGqTAwq-1" value="" style="endArrow=none;html=1;" edge="1" parent="1">
          <mxGeometry width="50" height="50" relative="1" as="geometry">
            <mxPoint x="440" y="440" as="sourcePoint" />
            <mxPoint x="440" y="20" as="targetPoint" />
          </mxGeometry>
        </mxCell>
      </root>
    </mxGraphModel>
  </diagram>
</mxfile>
